<svg xmlns="http://www.w3.org/2000/svg" width="200" height="200.003" viewBox="0 0 200 200.003"><path d="M100.2-.006A100,100,0,0,0,15.326,46.785,102.6,102.6,0,0,1,91.333,149.391,101.323,101.323,0,0,1,77.19,197.35a100.02,100.02,0,0,0,115.445-59.68A103.087,103.087,0,0,1,123.217,36.635,102.162,102.162,0,0,1,129.74,4.521,100,100,0,0,0,100.2-.006Zm43.475,10.063a87.283,87.283,0,0,0-5.486,27.119,88.184,88.184,0,0,0,59.024,86.3A100.086,100.086,0,0,0,143.675,10.057ZM8.147,60.474A100,100,0,0,0,62.521,192.722a86.382,86.382,0,0,0,13.9-43.871A87.63,87.63,0,0,0,8.147,60.474Z" transform="translate(0 0.006)"/></svg>